<svg width="16" height="17" viewBox="0 0 16 17" fill="none" xmlns="http://www.w3.org/2000/svg">
<g clip-path="url(#clip0_519_483)">
<path fill-rule="evenodd" clip-rule="evenodd" d="M8 16.5159C12.4183 16.5159 16 12.9342 16 8.51593C16 4.09765 12.4183 0.51593 8 0.51593C3.58172 0.51593 0 4.09765 0 8.51593C0 12.9342 3.58172 16.5159 8 16.5159ZM2.01979 9.58752V10.3195H5.55298V9.52408H3.36545L5.53834 7.38659V6.65457H2.03443V7.45003H4.19719L2.01979 9.58752ZM9.12672 8.39314C9.21104 8.41329 9.288 8.4389 9.3576 8.46997C9.54304 8.54806 9.68131 8.65867 9.77241 8.80182C9.8635 8.94172 9.90905 9.10439 9.90905 9.28983C9.90905 9.48829 9.8635 9.6656 9.77241 9.82176C9.68131 9.97467 9.54467 10.0967 9.36248 10.1878C9.18354 10.2756 8.95906 10.3195 8.68902 10.3195H5.98544L6.26849 8.44069L5.98544 6.65945H8.59142C8.92978 6.65945 9.1933 6.73916 9.382 6.89858C9.5707 7.05474 9.66504 7.27272 9.66504 7.55251C9.66504 7.70542 9.62926 7.85183 9.55768 7.99172C9.48611 8.13162 9.37061 8.25037 9.21119 8.34797C9.18464 8.36402 9.15648 8.37907 9.12672 8.39314ZM7.0575 9.61192H8.41574C8.56214 9.61192 8.67601 9.57613 8.75735 9.50456C8.83868 9.43298 8.87935 9.33375 8.87935 9.20687C8.87935 9.07999 8.83543 8.97913 8.74758 8.9043C8.65974 8.82622 8.52961 8.78718 8.35718 8.78718H7.18232L7.0575 9.61192ZM8.22053 8.09421H7.17901L7.06202 7.36707H8.24005C8.36694 7.36707 8.46454 7.3996 8.53286 7.46467C8.60118 7.52649 8.63534 7.6062 8.63534 7.7038C8.63534 7.82417 8.59468 7.92015 8.51334 7.99172C8.43526 8.06005 8.33766 8.09421 8.22053 8.09421ZM11.2697 9.11903H10.24C10.2497 9.37279 10.336 9.59728 10.4986 9.79248C10.6613 9.98443 10.8858 10.1341 11.1721 10.2415C11.4616 10.3456 11.7951 10.3976 12.1725 10.3976C12.5401 10.3976 12.8622 10.3456 13.1388 10.2415C13.4153 10.1341 13.63 9.98606 13.7829 9.79736C13.9358 9.60541 14.0123 9.38093 14.0123 9.12391C14.0123 8.91569 13.9651 8.74163 13.8708 8.60174C13.7764 8.46184 13.6251 8.35285 13.4169 8.27477C13.2087 8.19343 12.9305 8.1365 12.5824 8.10397L11.8553 8.03076C11.6471 8.01124 11.5023 7.97546 11.421 7.9234C11.3429 7.87135 11.3038 7.80303 11.3038 7.71844C11.3038 7.60132 11.3705 7.51347 11.5039 7.45491C11.6373 7.3931 11.8179 7.36219 12.0456 7.36219C12.2148 7.36219 12.3596 7.38008 12.4799 7.41587C12.6003 7.44841 12.6947 7.49721 12.763 7.56227C12.8346 7.62409 12.8769 7.69892 12.8899 7.78676H13.9147C13.9017 7.54601 13.8138 7.33454 13.6512 7.15235C13.4918 6.97015 13.2754 6.83026 13.0021 6.73266C12.7288 6.6318 12.4165 6.58137 12.0651 6.58137C11.7073 6.58137 11.3933 6.62692 11.1233 6.71802C10.8565 6.80586 10.6483 6.93762 10.4986 7.1133C10.3522 7.28899 10.279 7.50371 10.279 7.75748C10.279 8.06981 10.3929 8.31869 10.6206 8.50413C10.8484 8.68633 11.2144 8.80019 11.7187 8.84574L12.4019 8.90918C12.6329 8.93196 12.789 8.96937 12.8704 9.02143C12.9517 9.07348 12.9924 9.14668 12.9924 9.24103C12.9924 9.36466 12.9208 9.45901 12.7776 9.52408C12.6345 9.58589 12.4393 9.6168 12.192 9.6168C12.0131 9.6168 11.8569 9.59728 11.7235 9.55824C11.5934 9.51594 11.4893 9.45738 11.4112 9.38255C11.3331 9.30773 11.286 9.21988 11.2697 9.11903Z" fill="white"/>
</g>
<defs>
<clipPath id="clip0_519_483">
<rect width="16" height="16" fill="white" transform="translate(0 0.51593)"/>
</clipPath>
</defs>
</svg>
