<svg width="36" height="20" viewBox="0 0 36 20" fill="none" xmlns="http://www.w3.org/2000/svg">
<path fill-rule="evenodd" clip-rule="evenodd" d="M1.11688 0.479674C1.24292 0.353317 1.39265 0.253066 1.55749 0.184665C1.72233 0.116263 1.89905 0.0810547 2.07752 0.0810547C2.25599 0.0810547 2.43271 0.116263 2.59755 0.184665C2.76239 0.253066 2.91212 0.353317 3.03816 0.479674L18.3595 15.8037L33.6808 0.479674C33.807 0.353521 33.9567 0.253452 34.1216 0.185178C34.2864 0.116905 34.4631 0.0817651 34.6415 0.0817651C34.8199 0.0817651 34.9965 0.116905 35.1614 0.185178C35.3262 0.253452 35.476 0.353521 35.6021 0.479674C35.7283 0.605827 35.8283 0.755591 35.8966 0.920418C35.9649 1.08524 36 1.2619 36 1.44031C36 1.61872 35.9649 1.79538 35.8966 1.9602C35.8283 2.12503 35.7283 2.2748 35.6021 2.40095L19.3201 18.6829C19.1941 18.8093 19.0444 18.9095 18.8795 18.9779C18.7147 19.0463 18.538 19.0815 18.3595 19.0815C18.181 19.0815 18.0043 19.0463 17.8395 18.9779C17.6746 18.9095 17.5249 18.8093 17.3989 18.6829L1.11688 2.40095C0.990525 2.27491 0.890275 2.12518 0.821873 1.96034C0.753471 1.7955 0.718262 1.61878 0.718262 1.44031C0.718262 1.26184 0.753471 1.08512 0.821873 0.920282C0.890275 0.75544 0.990525 0.605712 1.11688 0.479674Z" fill="#92FAE7"/>
</svg>
