<svg width="61" height="61" viewBox="0 0 61 61" fill="none" xmlns="http://www.w3.org/2000/svg">
<g clip-path="url(#clip0_127_310)">
<path d="M32.9006 30.5033L47.9936 21.0077C47.1809 18.7233 45.0045 17.0811 42.4417 17.0811H18.8987C16.3358 17.0811 14.1594 18.7233 13.3468 21.0077L28.4398 30.5033C29.7922 31.3614 31.5425 31.3557 32.9006 30.5033Z" fill="white"/>
<path d="M18.8985 45.0849H42.4415C45.6919 45.0849 48.34 42.4368 48.34 39.1863V24.8207L34.7132 33.3901C33.4857 34.1629 32.0765 34.5493 30.6672 34.5493C29.2579 34.5493 27.8486 34.1629 26.6212 33.3901L13 24.8207V39.192C13 42.4424 15.6424 45.0849 18.8985 45.0849Z" fill="white"/>
<path d="M60.5 30.0811C60.5 46.3735 47.2924 59.5811 31 59.5811C14.7076 59.5811 1.5 46.3735 1.5 30.0811C1.5 13.7887 14.7076 0.581055 31 0.581055C47.2924 0.581055 60.5 13.7887 60.5 30.0811Z" stroke="white"/>
</g>
<defs>
<clipPath id="clip0_127_310">
<rect width="61" height="60" fill="white" transform="translate(0 0.0810547)"/>
</clipPath>
</defs>
</svg>
