<svg width="61" height="61" viewBox="0 0 61 61" fill="none" xmlns="http://www.w3.org/2000/svg">
<g clip-path="url(#clip0_127_307)">
<path d="M60 30C60 46.2924 46.7924 59.5 30.5 59.5C14.2076 59.5 1 46.2924 1 30C1 13.7076 14.2076 0.5 30.5 0.5C46.7924 0.5 60 13.7076 60 30Z" stroke="white"/>
<path fill-rule="evenodd" clip-rule="evenodd" d="M13.5694 29.8497C22.3157 26.0513 28.1383 23.5274 31.0621 22.3029C39.3836 18.8293 41.1329 18.2296 42.2574 18.2046C42.5073 18.2046 43.0571 18.2546 43.4319 18.5544C43.7318 18.8043 43.8068 19.1292 43.8567 19.3791C43.9067 19.629 43.9567 20.1538 43.9067 20.5536C43.4569 25.3016 41.5077 36.8218 40.5081 42.1196C40.0833 44.3687 39.2587 45.1184 38.459 45.1933C36.7097 45.3433 35.3853 44.0438 33.711 42.9443C31.0621 41.22 29.5877 40.1454 27.0138 38.4462C24.04 36.497 25.9642 35.4224 27.6635 33.6731C28.1133 33.2233 35.7851 26.2262 35.935 25.6015C35.96 25.5265 35.96 25.2267 35.7851 25.0767C35.6102 24.9268 35.3603 24.9768 35.1604 25.0267C34.8855 25.0767 30.6872 27.8756 22.5156 33.3983C21.3161 34.2229 20.2416 34.6227 19.267 34.5978C18.1924 34.5728 16.1433 33.998 14.5939 33.4982C12.7197 32.8985 11.2203 32.5736 11.3453 31.524C11.4203 30.9743 12.1699 30.4245 13.5694 29.8497Z" fill="white"/>
</g>
<defs>
<clipPath id="clip0_127_307">
<rect width="61" height="60" fill="white" transform="translate(0 0.0810547)"/>
</clipPath>
</defs>
</svg>
