<svg width="220" height="34" viewBox="0 0 220 34" fill="none" xmlns="http://www.w3.org/2000/svg">
<path d="M0.295 27V24.34L20.875 2.15L22.625 3.55H0.435V0.749998H23.955V3.375L3.375 25.6L1.8 24.2H24.06V27H0.295ZM43.5525 13.875L43.9375 13.035C46.0609 13.0583 47.7759 13.385 49.0825 14.015C50.3892 14.6217 51.3459 15.45 51.9525 16.5C52.5592 17.5267 52.8625 18.67 52.8625 19.93C52.8625 21.3067 52.5242 22.5317 51.8475 23.605C51.1942 24.655 50.2259 25.4833 48.9425 26.09C47.6592 26.6967 46.0725 27 44.1825 27H27.6275L29.6925 13.525L27.6275 0.749998H43.5875C46.0142 0.749998 47.8692 1.32166 49.1525 2.465C50.4592 3.585 51.1125 5.125 51.1125 7.085C51.1125 8.11167 50.8559 9.12667 50.3425 10.13C49.8525 11.11 49.0592 11.95 47.9625 12.65C46.8659 13.3267 45.3959 13.735 43.5525 13.875ZM30.9875 25.915L29.7275 24.27H44.0075C45.7342 24.27 47.0759 23.885 48.0325 23.115C49.0125 22.3217 49.5025 21.19 49.5025 19.72C49.5025 18.1567 48.9309 16.955 47.7875 16.115C46.6442 15.275 44.9525 14.855 42.7125 14.855H31.3725V12.195H42.5375C44.0309 12.195 45.2675 11.7867 46.2475 10.97C47.2509 10.1533 47.7525 8.96333 47.7525 7.4C47.7525 6.25667 47.3442 5.32333 46.5275 4.6C45.7342 3.85333 44.5559 3.48 42.9925 3.48H29.7275L30.9875 1.835L32.8775 13.525L30.9875 25.915ZM55.8403 18.495H59.1653C59.3286 19.7317 59.8186 20.8167 60.6353 21.75C61.4519 22.6833 62.5253 23.4067 63.8553 23.92C65.2086 24.41 66.7603 24.655 68.5103 24.655C71.1469 24.655 73.2353 24.2117 74.7753 23.325C76.3386 22.415 77.1203 21.19 77.1203 19.65C77.1203 18.46 76.6303 17.55 75.6503 16.92C74.6936 16.29 73.0136 15.835 70.6103 15.555L65.5353 14.925C62.3386 14.5517 60.0403 13.7933 58.6403 12.65C57.2403 11.4833 56.5403 9.92 56.5403 7.96C56.5403 6.39667 57.0069 5.04333 57.9403 3.9C58.8736 2.73333 60.1803 1.84667 61.8603 1.24C63.5636 0.609999 65.5469 0.295 67.8103 0.295C70.0736 0.295 72.0803 0.644999 73.8303 1.345C75.6036 2.02166 77.0036 2.97833 78.0303 4.215C79.0803 5.42833 79.6519 6.86333 79.7453 8.52H76.4203C76.2803 7.4 75.8369 6.44333 75.0903 5.65C74.3436 4.83333 73.3403 4.20333 72.0803 3.76C70.8436 3.29333 69.3969 3.06 67.7403 3.06C65.3369 3.06 63.4119 3.49167 61.9653 4.355C60.5419 5.195 59.8303 6.37333 59.8303 7.89C59.8303 9.05667 60.2969 9.955 61.2303 10.585C62.1869 11.1917 63.7969 11.635 66.0603 11.915L71.0303 12.58C73.3403 12.86 75.1719 13.2683 76.5253 13.805C77.9019 14.3417 78.8936 15.065 79.5003 15.975C80.1069 16.8617 80.4103 17.9933 80.4103 19.37C80.4103 21.0267 79.9086 22.4617 78.9053 23.675C77.9253 24.8883 76.5369 25.8217 74.7403 26.475C72.9436 27.1283 70.8553 27.455 68.4753 27.455C66.0719 27.455 63.9369 27.0817 62.0703 26.335C60.2036 25.565 58.7219 24.515 57.6253 23.185C56.5286 21.8317 55.9336 20.2683 55.8403 18.495ZM113.398 27L112.768 19.475L113.608 17.2L112.838 14.925L114.133 0.0499986H115.988L114.483 17.2L115.288 27H113.398ZM114.483 17.2C113.923 19.23 113.094 21.015 111.998 22.555C110.901 24.095 109.594 25.2967 108.078 26.16C106.584 27 104.928 27.42 103.108 27.42C101.194 27.42 99.4911 26.9883 97.9978 26.125C96.5044 25.2617 95.3261 24.06 94.4628 22.52C93.5994 20.98 93.1678 19.2067 93.1678 17.2C93.1678 15.17 93.5994 13.3967 94.4628 11.88C95.3261 10.34 96.5044 9.13833 97.9978 8.275C99.4911 7.41167 101.194 6.98 103.108 6.98C104.928 6.98 106.584 7.41167 108.078 8.275C109.594 9.13833 110.901 10.34 111.998 11.88C113.094 13.3967 113.923 15.17 114.483 17.2ZM95.1278 17.2C95.1278 18.8567 95.4661 20.3267 96.1428 21.61C96.8428 22.87 97.7878 23.8617 98.9778 24.585C100.191 25.285 101.568 25.635 103.108 25.635C104.648 25.635 106.059 25.285 107.343 24.585C108.626 23.8617 109.769 22.87 110.773 21.61C111.776 20.3267 112.616 18.8567 113.293 17.2C112.616 15.52 111.776 14.05 110.773 12.79C109.769 11.53 108.626 10.55 107.343 9.85C106.059 9.12667 104.648 8.765 103.108 8.765C101.568 8.765 100.191 9.12667 98.9778 9.85C97.7878 10.55 96.8428 11.53 96.1428 12.79C95.4661 14.05 95.1278 15.52 95.1278 17.2ZM130.516 27.42C128.299 27.42 126.339 26.9883 124.636 26.125C122.956 25.2617 121.638 24.06 120.681 22.52C119.748 20.98 119.281 19.2067 119.281 17.2C119.281 15.17 119.724 13.3967 120.611 11.88C121.521 10.34 122.769 9.13833 124.356 8.275C125.943 7.41167 127.786 6.98 129.886 6.98C131.916 6.98 133.701 7.42333 135.241 8.31C136.781 9.19667 137.983 10.4333 138.846 12.02C139.709 13.5833 140.141 15.4033 140.141 17.48H120.576V15.8H139.686L138.181 16.85C138.111 15.2167 137.726 13.7933 137.026 12.58C136.326 11.3667 135.358 10.4333 134.121 9.78C132.908 9.10333 131.496 8.765 129.886 8.765C128.136 8.765 126.608 9.115 125.301 9.815C124.018 10.515 123.014 11.495 122.291 12.755C121.591 14.015 121.241 15.4967 121.241 17.2C121.241 18.9033 121.626 20.385 122.396 21.645C123.166 22.905 124.239 23.885 125.616 24.585C127.016 25.285 128.649 25.635 130.516 25.635C132.243 25.635 133.864 25.3317 135.381 24.725C136.898 24.1183 138.286 23.3133 139.546 22.31V24.095C138.333 25.1217 136.909 25.9383 135.276 26.545C133.643 27.1283 132.056 27.42 130.516 27.42ZM162.318 21.505C162.318 22.6717 161.922 23.6983 161.128 24.585C160.358 25.4717 159.273 26.1717 157.873 26.685C156.473 27.175 154.852 27.42 153.008 27.42C151.095 27.42 149.38 27.1283 147.863 26.545C146.37 25.9383 145.18 25.11 144.293 24.06C143.43 22.9867 142.963 21.75 142.893 20.35H144.818C144.958 21.4 145.39 22.3333 146.113 23.15C146.86 23.9433 147.828 24.5733 149.018 25.04C150.208 25.4833 151.538 25.705 153.008 25.705C155.202 25.705 156.975 25.32 158.328 24.55C159.682 23.7567 160.358 22.7417 160.358 21.505C160.358 20.4783 159.927 19.72 159.063 19.23C158.2 18.74 156.625 18.3667 154.338 18.11L150.628 17.69C148.948 17.5033 147.583 17.2 146.533 16.78C145.483 16.3367 144.713 15.7767 144.223 15.1C143.757 14.4 143.523 13.5717 143.523 12.615C143.523 11.425 143.885 10.41 144.608 9.57C145.332 8.73 146.347 8.08833 147.653 7.645C148.96 7.20167 150.465 6.98 152.168 6.98C154.035 6.98 155.692 7.26 157.138 7.82C158.608 8.38 159.775 9.15 160.638 10.13C161.502 11.11 161.968 12.2533 162.038 13.56H160.113C159.997 12.6033 159.577 11.7633 158.853 11.04C158.153 10.2933 157.22 9.72167 156.053 9.325C154.91 8.905 153.592 8.695 152.098 8.695C149.975 8.695 148.342 9.02167 147.198 9.675C146.055 10.3283 145.483 11.2733 145.483 12.51C145.483 13.49 145.88 14.2483 146.673 14.785C147.467 15.2983 148.832 15.6717 150.768 15.905L154.443 16.325C156.403 16.535 157.955 16.85 159.098 17.27C160.265 17.6667 161.093 18.2033 161.583 18.88C162.073 19.5567 162.318 20.4317 162.318 21.505ZM166.614 7.4L167.559 7.54L168.504 7.4V27H166.614V7.4ZM167.559 4.075C167.069 4.075 166.649 3.91167 166.299 3.585C165.973 3.235 165.809 2.82667 165.809 2.36C165.809 1.89333 165.973 1.49667 166.299 1.17C166.649 0.819999 167.069 0.644999 167.559 0.644999C168.049 0.644999 168.458 0.819999 168.784 1.17C169.134 1.49667 169.309 1.89333 169.309 2.36C169.309 2.82667 169.134 3.235 168.784 3.585C168.458 3.91167 168.049 4.075 167.559 4.075ZM192.79 22.31V18.705L192.93 18.285V15.59L192.79 14.89V7.4H194.68V21.785C194.68 24.3983 194.178 26.545 193.175 28.225C192.195 29.9283 190.853 31.1767 189.15 31.97C187.47 32.7867 185.591 33.195 183.515 33.195C181.858 33.195 180.318 32.95 178.895 32.46C177.471 31.9933 176.13 31.2467 174.87 30.22V28.365C176.27 29.5083 177.693 30.3017 179.14 30.745C180.586 31.1883 182.01 31.41 183.41 31.41C186.466 31.41 188.788 30.5817 190.375 28.925C191.985 27.2683 192.79 25.0633 192.79 22.31ZM182.325 26.02C180.575 26.02 178.988 25.6233 177.565 24.83C176.141 24.0367 175.01 22.9283 174.17 21.505C173.33 20.0583 172.91 18.39 172.91 16.5C172.91 14.5867 173.33 12.9183 174.17 11.495C175.01 10.0717 176.141 8.96333 177.565 8.17C178.988 7.37667 180.575 6.98 182.325 6.98C183.608 6.98 184.821 7.17833 185.965 7.575C187.108 7.97167 188.146 8.50833 189.08 9.185C190.013 9.86167 190.818 10.62 191.495 11.46C192.171 12.3 192.696 13.1517 193.07 14.015C193.443 14.8783 193.63 15.7067 193.63 16.5C193.63 17.48 193.338 18.5183 192.755 19.615C192.195 20.7117 191.401 21.75 190.375 22.73C189.348 23.71 188.146 24.5033 186.77 25.11C185.416 25.7167 183.935 26.02 182.325 26.02ZM182.64 24.235C184.623 24.235 186.466 23.64 188.17 22.45C189.873 21.2367 191.448 19.2533 192.895 16.5C191.471 13.7233 189.896 11.74 188.17 10.55C186.466 9.36 184.623 8.765 182.64 8.765C180.96 8.765 179.536 9.10333 178.37 9.78C177.226 10.4567 176.351 11.3783 175.745 12.545C175.161 13.6883 174.87 15.0067 174.87 16.5C174.87 17.97 175.161 19.2883 175.745 20.455C176.351 21.6217 177.226 22.5433 178.37 23.22C179.536 23.8967 180.96 24.235 182.64 24.235ZM199.304 7.4H201.194L202.244 13.665V27H200.354V13.385L199.304 7.4ZM210.679 6.98C212.499 6.98 214.039 7.34167 215.299 8.065C216.559 8.78833 217.516 9.85 218.169 11.25C218.846 12.6267 219.184 14.3067 219.184 16.29V27H217.294V16.675C217.294 14.0383 216.699 12.055 215.509 10.725C214.319 9.37167 212.569 8.695 210.259 8.695C208.649 8.695 207.237 9.05667 206.024 9.78C204.834 10.5033 203.901 11.5183 203.224 12.825C202.571 14.1083 202.244 15.6017 202.244 17.305L201.264 16.36C201.381 14.47 201.847 12.825 202.664 11.425C203.481 10.025 204.577 8.94 205.954 8.17C207.331 7.37667 208.906 6.98 210.679 6.98Z" fill="white"/>
</svg>
