<svg width="36" height="20" viewBox="0 0 36 20" fill="none" xmlns="http://www.w3.org/2000/svg">
<path fill-rule="evenodd" clip-rule="evenodd" d="M35.6014 18.6844C35.4753 18.8107 35.3256 18.911 35.1608 18.9794C34.9959 19.0478 34.8192 19.083 34.6407 19.083C34.4623 19.083 34.2856 19.0478 34.1207 18.9794C33.9559 18.911 33.8061 18.8107 33.6801 18.6844L18.3588 3.36033L3.03743 18.6844C2.91128 18.8105 2.76152 18.9106 2.59669 18.9789C2.43186 19.0472 2.2552 19.0823 2.07679 19.0823C1.89839 19.0823 1.72173 19.0472 1.5569 18.9789C1.39207 18.9106 1.24231 18.8105 1.11616 18.6844C0.990006 18.5582 0.889935 18.4085 0.821663 18.2436C0.753391 18.0788 0.71825 17.9022 0.71825 17.7237C0.71825 17.5453 0.753391 17.3687 0.821663 17.2039C0.889935 17.039 0.990006 16.8893 1.11616 16.7631L17.3981 0.481137C17.5242 0.35478 17.6739 0.25453 17.8387 0.186129C18.0036 0.117728 18.1803 0.082518 18.3588 0.082518C18.5372 0.082518 18.714 0.117728 18.8788 0.186129C19.0436 0.25453 19.1934 0.354781 19.3194 0.481137L35.6014 16.7631C35.7277 16.8892 35.828 17.0389 35.8964 17.2037C35.9648 17.3686 36 17.5453 36 17.7238C36 17.9022 35.9648 18.0789 35.8964 18.2438C35.828 18.4086 35.7277 18.5584 35.6014 18.6844Z" fill="#92FAE7"/>
</svg>
